<svg width="17" height="16" viewBox="0 0 17 16" fill="none" xmlns="http://www.w3.org/2000/svg">
<path d="M8.5 12.5C8.22667 12.5 8 12.2733 8 12V10C8 9.72667 8.22667 9.5 8.5 9.5C8.77333 9.5 9 9.72667 9 10V12C9 12.2733 8.77333 12.5 8.5 12.5Z" fill="#4E5556"/>
<path d="M12.2333 15.0402H4.76664C3.55331 15.0402 2.44664 14.1069 2.24664 12.9135L1.35997 7.60021C1.21331 6.77354 1.61997 5.71354 2.27997 5.18687L6.89997 1.48687C7.79331 0.766874 9.19997 0.77354 10.1 1.49354L14.72 5.18687C15.3733 5.71354 15.7733 6.77354 15.64 7.60021L14.7533 12.9069C14.5533 14.0869 13.42 15.0402 12.2333 15.0402ZM8.49331 1.95354C8.13997 1.95354 7.78664 2.06021 7.52664 2.26687L2.90664 5.97354C2.53331 6.27354 2.26664 6.96687 2.34664 7.44021L3.23331 12.7469C3.35331 13.4469 4.05331 14.0402 4.76664 14.0402H12.2333C12.9466 14.0402 13.6466 13.4469 13.7666 12.7402L14.6533 7.43354C14.7266 6.96687 14.46 6.26021 14.0933 5.96687L9.47331 2.27354C9.20664 2.06021 8.84664 1.95354 8.49331 1.95354Z" fill="#4E5556"/>
</svg>
