<svg width="17" height="16" viewBox="0 0 17 16" fill="none" xmlns="http://www.w3.org/2000/svg">
<path d="M13.68 7.49967H10.9867C9.64667 7.49967 9 6.90634 9 5.67967V2.65301C9 1.42634 9.65333 0.833008 10.9867 0.833008H13.68C15.02 0.833008 15.6667 1.42634 15.6667 2.65301V5.67301C15.6667 6.90634 15.0133 7.49967 13.68 7.49967ZM10.9867 1.83301C10.0933 1.83301 10 2.08634 10 2.65301V5.67301C10 6.24634 10.0933 6.49301 10.9867 6.49301H13.68C14.5733 6.49301 14.6667 6.23967 14.6667 5.67301V2.65301C14.6667 2.07967 14.5733 1.83301 13.68 1.83301H10.9867Z" fill="#4E5556"/>
<path d="M13.68 15.1667H10.9867C9.64667 15.1667 9 14.5133 9 13.18V10.4867C9 9.14667 9.65333 8.5 10.9867 8.5H13.68C15.02 8.5 15.6667 9.15333 15.6667 10.4867V13.18C15.6667 14.5133 15.0133 15.1667 13.68 15.1667ZM10.9867 9.5C10.2 9.5 10 9.7 10 10.4867V13.18C10 13.9667 10.2 14.1667 10.9867 14.1667H13.68C14.4667 14.1667 14.6667 13.9667 14.6667 13.18V10.4867C14.6667 9.7 14.4667 9.5 13.68 9.5H10.9867Z" fill="#4E5556"/>
<path d="M6.01337 7.49967H3.32004C1.98004 7.49967 1.33337 6.90634 1.33337 5.67967V2.65301C1.33337 1.42634 1.98671 0.833008 3.32004 0.833008H6.01337C7.35337 0.833008 8.00004 1.42634 8.00004 2.65301V5.67301C8.00004 6.90634 7.34671 7.49967 6.01337 7.49967ZM3.32004 1.83301C2.42671 1.83301 2.33337 2.08634 2.33337 2.65301V5.67301C2.33337 6.24634 2.42671 6.49301 3.32004 6.49301H6.01337C6.90671 6.49301 7.00004 6.23967 7.00004 5.67301V2.65301C7.00004 2.07967 6.90671 1.83301 6.01337 1.83301H3.32004Z" fill="#4E5556"/>
<path d="M6.01337 15.1667H3.32004C1.98004 15.1667 1.33337 14.5133 1.33337 13.18V10.4867C1.33337 9.14667 1.98671 8.5 3.32004 8.5H6.01337C7.35337 8.5 8.00004 9.15333 8.00004 10.4867V13.18C8.00004 14.5133 7.34671 15.1667 6.01337 15.1667ZM3.32004 9.5C2.53337 9.5 2.33337 9.7 2.33337 10.4867V13.18C2.33337 13.9667 2.53337 14.1667 3.32004 14.1667H6.01337C6.80004 14.1667 7.00004 13.9667 7.00004 13.18V10.4867C7.00004 9.7 6.80004 9.5 6.01337 9.5H3.32004Z" fill="#4E5556"/>
</svg>
