<svg width="17" height="16" viewBox="0 0 17 16" fill="none" xmlns="http://www.w3.org/2000/svg">
<path d="M12.6267 11.833H5.5267C4.8667 11.833 4.23337 11.553 3.7867 11.0663C3.34004 10.5797 3.11337 9.92634 3.16671 9.26634L3.72004 2.62634C3.74004 2.41968 3.6667 2.21968 3.5267 2.06635C3.3867 1.91301 3.19337 1.83301 2.9867 1.83301H1.83337C1.56004 1.83301 1.33337 1.60634 1.33337 1.33301C1.33337 1.05967 1.56004 0.833008 1.83337 0.833008H2.99338C3.48004 0.833008 3.94004 1.03967 4.2667 1.39301C4.4467 1.59301 4.58004 1.82634 4.65337 2.08634H12.98C13.6534 2.08634 14.2734 2.35301 14.7267 2.83301C15.1734 3.31967 15.4 3.95301 15.3467 4.62634L14.9867 9.62634C14.9134 10.8463 13.8467 11.833 12.6267 11.833ZM4.68671 3.07967L4.16671 9.34633C4.13337 9.733 4.26004 10.0997 4.52004 10.3863C4.78004 10.673 5.14004 10.8263 5.5267 10.8263H12.6267C13.32 10.8263 13.9467 10.2397 14 9.54635L14.36 4.54635C14.3867 4.15301 14.26 3.77968 14 3.50635C13.74 3.22635 13.38 3.073 12.9867 3.073H4.68671V3.07967Z" fill="#4E5556"/>
<path d="M11.3333 15.1667C10.6 15.1667 10 14.5667 10 13.8333C10 13.1 10.6 12.5 11.3333 12.5C12.0667 12.5 12.6667 13.1 12.6667 13.8333C12.6667 14.5667 12.0667 15.1667 11.3333 15.1667ZM11.3333 13.5C11.1467 13.5 11 13.6467 11 13.8333C11 14.02 11.1467 14.1667 11.3333 14.1667C11.52 14.1667 11.6667 14.02 11.6667 13.8333C11.6667 13.6467 11.52 13.5 11.3333 13.5Z" fill="#4E5556"/>
<path d="M5.99996 15.1667C5.26663 15.1667 4.66663 14.5667 4.66663 13.8333C4.66663 13.1 5.26663 12.5 5.99996 12.5C6.73329 12.5 7.33329 13.1 7.33329 13.8333C7.33329 14.5667 6.73329 15.1667 5.99996 15.1667ZM5.99996 13.5C5.81329 13.5 5.66663 13.6467 5.66663 13.8333C5.66663 14.02 5.81329 14.1667 5.99996 14.1667C6.18663 14.1667 6.33329 14.02 6.33329 13.8333C6.33329 13.6467 6.18663 13.5 5.99996 13.5Z" fill="#4E5556"/>
<path d="M14.5 5.83301H6.5C6.22667 5.83301 6 5.60634 6 5.33301C6 5.05967 6.22667 4.83301 6.5 4.83301H14.5C14.7733 4.83301 15 5.05967 15 5.33301C15 5.60634 14.7733 5.83301 14.5 5.83301Z" fill="#4E5556"/>
</svg>
